<?xml version="1.0" encoding="UTF-8"?>
<svg version="1.1" xmlns="http://www.w3.org/2000/svg" width="866" height="866">
<path d="M0 0 C2.0196319 0.9289746 4.0585239 1.77574457 6.11816406 2.61132812 C9.11035156 3.97070312 9.11035156 3.97070312 10.11035156 5.97070312 C10.81160156 6.24914062 11.51285156 6.52757812 12.23535156 6.81445312 C15.83667218 8.26281033 18.91205196 10.30624746 22.11035156 12.47070312 C22.76825684 12.91430176 23.42616211 13.35790039 24.10400391 13.81494141 C35.62293933 21.65956642 46.05907548 30.32472043 56.11035156 39.97070312 C56.93535156 40.75445312 57.76035156 41.53820312 58.61035156 42.34570312 C80.4216894 63.55117047 95.79116998 90.80964454 105.48535156 119.47070312 C105.8435498 120.52837891 105.8435498 120.52837891 106.20898438 121.60742188 C114.09140726 145.9277194 109.8137643 168.29561992 99.11035156 190.97070312 C93.36986029 202.12699725 85.92016579 211.97021333 77.86035156 221.53320312 C77.35286377 222.14147949 76.84537598 222.74975586 76.32250977 223.37646484 C73.7739126 226.34821418 71.65039935 228.33870862 68.11035156 229.97070312 C67.78035156 230.96070313 67.45035156 231.95070313 67.11035156 232.97070312 C65.08543403 234.77919463 63.07169592 236.44688272 60.92285156 238.09570312 C60.29572266 238.58071289 59.66859375 239.06572266 59.02246094 239.56542969 C15.71287644 272.59926362 -34.93203298 274.20450652 -87.17329216 274.37542009 C-91.44942753 274.39142052 -95.72549862 274.41809646 -100.00158691 274.44345093 C-108.06226651 274.48969128 -116.12295931 274.52667695 -124.18370104 274.5601238 C-133.32488865 274.5985446 -142.46600696 274.64799497 -151.60713673 274.69810796 C-165.12136649 274.77187264 -178.6356151 274.84139024 -192.1499157 274.90088844 C-193.59213745 274.90724267 -195.0343588 274.91368988 -196.47657967 274.92024422 C-198.46692891 274.92922989 -200.45728037 274.93772017 -202.44763184 274.94619751 C-204.30076241 274.95518003 -204.30076241 274.95518003 -206.19132996 274.96434402 C-208.73505136 274.96871784 -211.27882048 274.95957184 -213.82246399 274.93918991 C-215.69728706 274.92570951 -215.69728706 274.92570951 -217.60998535 274.91195679 C-218.72286171 274.89981329 -219.83573807 274.88766979 -220.98233795 274.87515831 C-223.79928095 274.86259142 -223.79928095 274.86259142 -226.09462738 275.53687477 C-227.88964844 275.97070312 -227.88964844 275.97070312 -230.88964844 274.97070312 C-233.42222743 274.87470793 -235.92057236 274.83133278 -238.45214844 274.84570312 C-239.13728516 274.84183594 -239.82242187 274.83796875 -240.52832031 274.83398438 C-244.33527031 274.78347695 -244.33527031 274.78347695 -247.88964844 275.97070312 C-249.67567984 276.06663781 -251.46530076 276.09866037 -253.25390625 276.10009766 C-254.3755719 276.10324982 -255.49723755 276.10640198 -256.65289307 276.10964966 C-257.87055359 276.10762543 -259.08821411 276.1056012 -260.34277344 276.10351562 C-261.59088806 276.10447235 -262.83900269 276.10542908 -264.12493896 276.10641479 C-266.77131586 276.10709654 -269.41760101 276.1057422 -272.06396484 276.10107422 C-275.44428851 276.09540032 -278.82453237 276.09864169 -282.20485306 276.10464668 C-285.43832929 276.10914832 -288.67179615 276.10598663 -291.90527344 276.10351562 C-293.71961884 276.10655197 -293.71961884 276.10655197 -295.57061768 276.10964966 C-296.70489197 276.1064975 -297.83916626 276.10334534 -299.0078125 276.10009766 C-300.0010553 276.09930206 -300.9942981 276.09850647 -302.01763916 276.09768677 C-305.04339336 275.96390541 -307.90962826 275.49600427 -310.88964844 274.97070312 C-312.72693898 274.945537 -314.56573303 274.97468255 -316.40136719 275.05664062 C-317.40619141 275.10046875 -318.41101563 275.14429688 -319.44628906 275.18945312 C-320.47947266 275.24101563 -321.51265625 275.29257812 -322.57714844 275.34570312 C-323.62193359 275.38953125 -324.66671875 275.43335938 -325.74316406 275.47851562 C-331.40752304 275.68957404 -331.40752304 275.68957404 -336.88964844 276.97070312 C-338.11934722 280.48261122 -338.11934722 280.48261122 -338.88964844 283.97070312 C-338.22964844 284.30070312 -337.56964844 284.63070313 -336.88964844 284.97070312 C-336.16805419 286.61433446 -335.49613423 288.28120699 -334.88964844 289.97070312 C-328.72139871 290.87297708 -322.7277191 291.12246421 -316.49871826 291.12892151 C-315.47657675 291.13385949 -314.45443524 291.13879746 -313.40131974 291.14388508 C-309.9869491 291.15920076 -306.57259721 291.16760622 -303.15820312 291.17602539 C-300.70268085 291.18561212 -298.2471602 291.19562267 -295.79164124 291.20602417 C-289.80754426 291.23026601 -283.82344754 291.25002707 -277.83932903 291.26777691 C-270.81187957 291.28884417 -263.78445319 291.31527855 -256.75702313 291.34194838 C-244.14645848 291.389646 -231.5358825 291.43285253 -218.92529297 291.47338867 C-206.82795131 291.51228191 -194.73062246 291.55369895 -182.63330078 291.59838867 C-181.89569491 291.60111294 -181.15808903 291.60383722 -180.39813146 291.60664404 C-177.42854707 291.6176178 -174.45896271 291.62859688 -171.48937838 291.63958618 C-159.10136122 291.68535469 -146.71333649 291.72901638 -134.32531071 291.77237582 C-131.55336259 291.78208102 -128.78141475 291.79185928 -126.00946712 291.8017056 C-118.07554824 291.82984234 -110.14162583 291.85649307 -102.20769739 291.88182151 C-98.3860513 291.89465303 -94.56441677 291.90950535 -90.74277878 291.92453861 C-78.30117257 291.96926102 -65.86144398 291.97138551 -53.42010412 291.88939903 C-49.31898998 291.86382635 -45.21783292 291.84585862 -41.1166807 291.8275554 C-37.87746252 291.81212553 -34.63857607 291.78891973 -31.39949369 291.75494301 C13.84027029 291.28063644 13.84027029 291.28063644 30.54785156 306.53320312 C39.05902385 315.80154724 44.1232257 327.31542571 44.11035156 339.97070312 C42.03223671 353.47844966 38.54016773 366.74141218 35.11035156 379.97070312 C-160.90964844 379.97070312 -356.92964844 379.97070312 -558.88964844 379.97070312 C-568.55325527 354.2010849 -563.18076626 322.66306929 -551.99902344 298.00683594 C-543.94513283 281.10560998 -532.39850287 265.82500458 -517.88964844 253.97070312 C-517.22964844 253.31070312 -516.56964844 252.65070313 -515.88964844 251.97070312 C-494.5115366 236.55179205 -468.19245627 228.37685837 -441.88964844 228.97070312 C-442.10621094 227.44703125 -442.10621094 227.44703125 -442.32714844 225.89257812 C-445.97630537 199.32671563 -442.1654404 173.25299807 -425.51464844 151.28320312 C-424.31974773 149.8345182 -423.1109185 148.39722867 -421.88964844 146.97070312 C-420.90738281 145.771875 -420.90738281 145.771875 -419.90527344 144.54882812 C-413.97335476 137.57774122 -407.30834291 132.24357003 -399.88964844 126.97070312 C-399.12523437 126.40480469 -398.36082031 125.83890625 -397.57324219 125.25585938 C-385.61476098 117.19083717 -369.17096336 112.88298224 -354.88964844 111.97070312 C-353.66632813 111.88949219 -352.44300781 111.80828125 -351.18261719 111.72460938 C-329.16793638 111.00029784 -308.3873998 118.37393756 -288.88964844 127.97070312 C-288.76460938 126.77832031 -288.63957031 125.5859375 -288.51074219 124.35742188 C-283.69899113 86.35542958 -249.76280077 46.81122573 -220.88964844 23.97070312 C-219.87773437 23.1534375 -218.86582031 22.33617187 -217.82324219 21.49414062 C-209.93996198 15.20118618 -201.66999588 9.92094016 -192.88964844 4.97070312 C-192.27863281 4.62265625 -191.66761719 4.27460938 -191.03808594 3.91601562 C-131.40809328 -29.83202277 -61.18623147 -28.93029946 0 0 Z " fill="#3497FE" transform="translate(566.8896484375,256.029296875)"/>
<path d="M0 0 C38.22375001 -1.20011774 71.50776194 7.3808567 102 31 C102.96292969 31.73992187 103.92585937 32.47984375 104.91796875 33.2421875 C116.59653751 42.49938869 126.21265539 53.04546241 135 65 C135.63204346 65.84957275 135.63204346 65.84957275 136.27685547 66.71630859 C164.97551824 105.76935028 171.9853178 155.7157427 164.921875 202.82421875 C162.05799795 219.86800653 162.05799795 219.86800653 157 224 C155.10134155 224.37259549 155.10134155 224.37259549 152.91392231 224.36914349 C152.07890102 224.37511663 151.24387972 224.38108978 150.38355476 224.38724393 C149.007594 224.37413614 149.007594 224.37413614 147.60383606 224.36076355 C146.14216296 224.36460846 146.14216296 224.36460846 144.6509611 224.36853105 C141.37106398 224.37349014 138.09162261 224.35694079 134.81176758 224.34057617 C132.46652741 224.33973036 130.12128645 224.34020414 127.77604675 224.34190369 C121.39619347 224.34276685 115.0165083 224.32508903 108.63669419 224.30418181 C102.64880718 224.28736322 96.66092013 224.2843148 90.67301401 224.2812262 C78.8116813 224.27465802 66.95041045 224.25468694 55.08911133 224.22631836 C43.5660025 224.19878725 32.04291046 224.17754904 20.51977539 224.16479492 C19.80965861 224.16400675 19.09954184 224.16321858 18.36790637 224.16240653 C14.80550942 224.15849145 11.24311235 224.15470032 7.6807152 224.15097082 C-21.87956313 224.11986351 -51.43978047 224.06679497 -81 224 C-79.93644627 215.15517595 -79.93644627 215.15517595 -78.80078125 212.10546875 C-78.56447998 211.46577148 -78.32817871 210.82607422 -78.0847168 210.16699219 C-77.70246948 209.18714355 -77.70246948 209.18714355 -77.3125 208.1875 C-77.0441333 207.49172852 -76.7757666 206.79595703 -76.49926758 206.07910156 C-65.86508586 179.15948342 -43.55135403 156.58783615 -17.4140625 144.31640625 C0.80414749 136.44917871 18.65263622 135.02283456 38.3203125 134.7890625 C40.11393219 134.76743797 40.11393219 134.76743797 41.94378662 134.74537659 C46.94523932 134.68797179 51.94657246 134.63312709 56.94824219 134.59863281 C60.63503952 134.57111232 64.32124306 134.52531339 68.0078125 134.4765625 C69.13800812 134.47330963 70.26820374 134.47005676 71.43264771 134.46670532 C73.0111702 134.44185562 73.0111702 134.44185562 74.62158203 134.41650391 C75.54230499 134.40841705 76.46302795 134.4003302 77.41165161 134.39199829 C80.53853624 133.91844016 82.44477173 132.83517039 85 131 C86.55774936 127.88450128 86.56480622 124.3955612 86 121 C84.2830613 118.64989487 83.30981054 118.05744501 80.41796875 117.52124023 C78.81888672 117.44691772 78.81888672 117.44691772 77.1875 117.37109375 C75.93324219 117.30647949 74.67898438 117.24186523 73.38671875 117.17529297 C71.92451278 117.11602689 70.46227047 117.05765294 69 117 C67.31898087 116.92530383 65.63799258 116.84991151 63.95703125 116.77392578 C57.33409283 116.48137908 50.71044124 116.20518537 44.0859375 115.95043945 C4.75932179 114.42335304 4.75932179 114.42335304 -9.2578125 101.0078125 C-19.30295164 89.43112748 -21.4689477 77.68008969 -23 63 C-22.34 63 -21.68 63 -21 63 C-21.04125 61.98292969 -21.0825 60.96585937 -21.125 59.91796875 C-20.9976068 55.92498813 -20.30337769 53.07257314 -19 49.3125 C-18.67539795 48.36733521 -18.67539795 48.36733521 -18.34423828 47.40307617 C-16.06922762 40.91765627 -13.41701456 34.58257985 -10.81591797 28.22314453 C-8.27207027 21.9128908 -6.42101422 15.65632975 -5 9 C-4.36840547 6.65465217 -3.68825223 4.3294691 -3 2 C-2.01 2 -1.02 2 0 2 C0 1.34 0 0.68 0 0 Z " fill="#45B1FE" transform="translate(697,412)"/>
<path d="M0 0 C0.99 0.33 1.98 0.66 3 1 C-0.63 4.3 -4.26 7.6 -8 11 C-8.66 10.67 -9.32 10.34 -10 10 C-6.7 6.7 -3.4 3.4 0 0 Z " fill="#3D9BFA" transform="translate(335,289)"/>
<path d="M0 0 C0.33 0 0.66 0 1 0 C1.29296875 6.0546875 1.29296875 6.0546875 1 8 C0.01 8.66 -0.98 9.32 -2 10 C-1.34 6.7 -0.68 3.4 0 0 Z " fill="#3E9BF9" transform="translate(9,570)"/>
<path d="M0 0 C2.31 0 4.62 0 7 0 C7 0.33 7 0.66 7 1 C4.69 1 2.38 1 0 1 C0 0.67 0 0.34 0 0 Z " fill="#1EA3FF" transform="translate(434,531)"/>
<path d="M0 0 C1.65 0 3.3 0 5 0 C5 0.33 5 0.66 5 1 C3.35 1 1.7 1 0 1 C0 0.67 0 0.34 0 0 Z " fill="#5DA1FF" transform="translate(106,484)"/>
<path d="M0 0 C3 1 3 1 3 1 Z " fill="#54A9FF" transform="translate(699,548)"/>
<path d="M0 0 C3 1 3 1 3 1 Z " fill="#1CE2FF" transform="translate(474,531)"/>
<path d="M0 0 C3 1 3 1 3 1 Z " fill="#11DDFF" transform="translate(454,531)"/>
<path d="M0 0 C3 1 3 1 3 1 Z " fill="#007FFF" transform="translate(430,531)"/>
<path d="M0 0 C3 1 3 1 3 1 Z " fill="#157FFF" transform="translate(422,531)"/>
<path d="M0 0 C3 1 3 1 3 1 Z " fill="#38C6FF" transform="translate(418,531)"/>
<path d="M0 0 C3 1 3 1 3 1 Z " fill="#1187FF" transform="translate(414,531)"/>
<path d="M0 0 C3 1 3 1 3 1 Z " fill="#38C6FF" transform="translate(398,531)"/>
<path d="M0 0 C3 1 3 1 3 1 Z " fill="#00D4FF" transform="translate(517,530)"/>
<path d="M0 0 C3 1 3 1 3 1 Z " fill="#15E9FF" transform="translate(754,529)"/>
<path d="" fill="#00FFFF" transform="translate(0,0)"/>
<path d="" fill="#00FFFF" transform="translate(0,0)"/>
<path d="M0 0 C2 1 2 1 2 1 Z " fill="#1FDFFF" transform="translate(779,531)"/>
<path d="M0 0 C2 1 2 1 2 1 Z " fill="#00FFFF" transform="translate(498,531)"/>
<path d="M0 0 C2 1 2 1 2 1 Z " fill="#2AD4FF" transform="translate(486,531)"/>
<path d="M0 0 C2 1 2 1 2 1 Z " fill="#2A94FF" transform="translate(478,531)"/>
<path d="M0 0 C2 1 2 1 2 1 Z " fill="#1FBFFF" transform="translate(462,531)"/>
<path d="M0 0 C2 1 2 1 2 1 Z " fill="#00FFFF" transform="translate(458,531)"/>
<path d="M0 0 C2 1 2 1 2 1 Z " fill="#00BFFF" transform="translate(450,531)"/>
<path d="M0 0 C2 1 2 1 2 1 Z " fill="#007FFF" transform="translate(426,531)"/>
<path d="M0 0 C2 1 2 1 2 1 Z " fill="#2A94FF" transform="translate(410,531)"/>
<path d="M0 0 C2 1 2 1 2 1 Z " fill="#2AD4FF" transform="translate(406,531)"/>
<path d="M0 0 C2 1 2 1 2 1 Z " fill="#007FFF" transform="translate(402,531)"/>
<path d="M0 0 C2 1 2 1 2 1 Z " fill="#2AD4FF" transform="translate(374,531)"/>
<path d="M0 0 C2 1 2 1 2 1 Z " fill="#00BFFF" transform="translate(351,531)"/>
<path d="M0 0 C2 1 2 1 2 1 Z " fill="#6A94FF" transform="translate(522,530)"/>
<path d="M0 0 C2 1 2 1 2 1 Z " fill="#00FFFF" transform="translate(538,529)"/>
<path d="M0 0 C2 1 2 1 2 1 Z " fill="#2AD4FF" transform="translate(832,476)"/>
<path d="M0 0 C2 1 2 1 2 1 Z " fill="#3FBFFF" transform="translate(232,367)"/>
<path d="M0 0 C2 1 2 1 2 1 Z " fill="#7F7FFF" transform="translate(387,252)"/>
<path d="M0 0 C2 1 2 1 2 1 Z " fill="#00FFFF" transform="translate(512,236)"/>
<path d="" fill="#00FFFF" transform="translate(0,0)"/>
<path d="" fill="#00FFFF" transform="translate(0,0)"/>
<path d="" fill="#00FFFF" transform="translate(0,0)"/>
<path d="" fill="#00FFFF" transform="translate(0,0)"/>
<path d="" fill="#00FFFF" transform="translate(0,0)"/>
<path d="" fill="#00FFFF" transform="translate(0,0)"/>
<path d="" fill="#00FFFF" transform="translate(0,0)"/>
<path d="" fill="#00FFFF" transform="translate(0,0)"/>
<path d="" fill="#00FFFF" transform="translate(0,0)"/>
<path d="" fill="#00FFFF" transform="translate(0,0)"/>
<path d="" fill="#00FFFF" transform="translate(0,0)"/>
<path d="" fill="#007FFF" transform="translate(0,0)"/>
<path d="" fill="#00FFFF" transform="translate(0,0)"/>
<path d="" fill="#00FFFF" transform="translate(0,0)"/>
<path d="" fill="#00FFFF" transform="translate(0,0)"/>
<path d="" fill="#55AAFF" transform="translate(0,0)"/>
<path d="" fill="#007FFF" transform="translate(0,0)"/>
<path d="" fill="#00FFFF" transform="translate(0,0)"/>
<path d="" fill="#00FFFF" transform="translate(0,0)"/>
<path d="" fill="#007FFF" transform="translate(0,0)"/>
<path d="" fill="#00FFFF" transform="translate(0,0)"/>
<path d="" fill="#00FFFF" transform="translate(0,0)"/>
<path d="" fill="#00FFFF" transform="translate(0,0)"/>
<path d="" fill="#00FFFF" transform="translate(0,0)"/>
<path d="" fill="#007FFF" transform="translate(0,0)"/>
<path d="" fill="#00FFFF" transform="translate(0,0)"/>
<path d="" fill="#00FFFF" transform="translate(0,0)"/>
<path d="" fill="#7F7FFF" transform="translate(0,0)"/>
<path d="" fill="#7F7FFF" transform="translate(0,0)"/>
<path d="" fill="#00FFFF" transform="translate(0,0)"/>
<path d="" fill="#00FFFF" transform="translate(0,0)"/>
<path d="" fill="#00FFFF" transform="translate(0,0)"/>
<path d="" fill="#00FFFF" transform="translate(0,0)"/>
<path d="" fill="#00FFFF" transform="translate(0,0)"/>
<path d="" fill="#7F7FFF" transform="translate(0,0)"/>
<path d="" fill="#7F7FFF" transform="translate(0,0)"/>
<path d="" fill="#7F7FFF" transform="translate(0,0)"/>
<path d="" fill="#00FFFF" transform="translate(0,0)"/>
<path d="" fill="#7F7FFF" transform="translate(0,0)"/>
<path d="" fill="#00FFFF" transform="translate(0,0)"/>
<path d="" fill="#00FFFF" transform="translate(0,0)"/>
<path d="" fill="#00FFFF" transform="translate(0,0)"/>
<path d="" fill="#00FFFF" transform="translate(0,0)"/>
<path d="" fill="#00FFFF" transform="translate(0,0)"/>
<path d="" fill="#00FFFF" transform="translate(0,0)"/>
<path d="" fill="#55AAFF" transform="translate(0,0)"/>
<path d="" fill="#7F7FFF" transform="translate(0,0)"/>
<path d="" fill="#00FFFF" transform="translate(0,0)"/>
<path d="" fill="#00FFFF" transform="translate(0,0)"/>
<path d="" fill="#00FFFF" transform="translate(0,0)"/>
<path d="" fill="#00FFFF" transform="translate(0,0)"/>
<path d="" fill="#7F7FFF" transform="translate(0,0)"/>
<path d="" fill="#00FFFF" transform="translate(0,0)"/>
<path d="" fill="#00FFFF" transform="translate(0,0)"/>
<path d="" fill="#7F7FFF" transform="translate(0,0)"/>
<path d="" fill="#00FFFF" transform="translate(0,0)"/>
<path d="" fill="#7F7FFF" transform="translate(0,0)"/>
<path d="" fill="#00FFFF" transform="translate(0,0)"/>
<path d="" fill="#00FFFF" transform="translate(0,0)"/>
<path d="" fill="#00FFFF" transform="translate(0,0)"/>
<path d="" fill="#7F7FFF" transform="translate(0,0)"/>
<path d="" fill="#00FFFF" transform="translate(0,0)"/>
<path d="" fill="#00FFFF" transform="translate(0,0)"/>
</svg>
